<?xml version="1.0" encoding="UTF-8" standalone="no" ?>
<!DOCTYPE svg PUBLIC "-//W3C//DTD SVG 1.1//EN" "http://www.w3.org/Graphics/SVG/1.1/DTD/svg11.dtd">
<svg xmlns="http://www.w3.org/2000/svg" xmlns:xlink="http://www.w3.org/1999/xlink" version="1.1" width="350" height="350" viewBox="0 0 350 350" xml:space="preserve">
<desc>Created with Fabric.js 1.7.22</desc>
<defs>
</defs>
<g style="stroke: none; stroke-width: 1; stroke-dasharray: none; stroke-linecap: butt; stroke-linejoin: miter; stroke-miterlimit: 10; fill: rgb(117,53,53); fill-rule: nonzero; opacity: 1;" transform="translate(-1.9444444444444287 -1.9444444444444287) scale(3.89 3.89)" >
	<path id="Layer_1" d="M 45 90 C 20.187 90 0 69.814 0 45 C 0 20.187 20.187 0 45 0 c 24.814 0 45 20.187 45 45 C 90 69.814 69.814 90 45 90 z M 45 5.625 C 23.289 5.625 5.625 23.289 5.625 45 c 0 21.712 17.664 39.375 39.375 39.375 c 21.712 0 39.375 -17.663 39.375 -39.375 C 84.375 23.289 66.712 5.625 45 5.625 z" style="stroke: none; stroke-width: 1; stroke-dasharray: none; stroke-linecap: butt; stroke-linejoin: miter; stroke-miterlimit: 10; fill: rgb(117,53,53); fill-rule: nonzero; opacity: 1;" transform=" matrix(1 0 0 1 0 0) " stroke-linecap="round" />
</g>
<g id="icon" style="stroke: none; stroke-width: 1; stroke-dasharray: none; stroke-linecap: butt; stroke-linejoin: miter; stroke-miterlimit: 10; fill: none; fill-rule: nonzero; opacity: 1;" transform="translate(43.55555555555557 43.55555555555557) scale(2.89 2.89)" >
	<circle cx="45" cy="45" r="45" style="stroke: none; stroke-width: 1; stroke-dasharray: none; stroke-linecap: butt; stroke-linejoin: miter; stroke-miterlimit: 10; fill: rgb(117,53,53); fill-rule: nonzero; opacity: 1;" transform="  matrix(1 0 0 1 0 0) "/>
	<path d="M 65.622 34.364 H 18.091 c -1.983 0 -3.591 -1.608 -3.591 -3.591 v -5.005 c 0 -1.983 1.608 -3.591 3.591 -3.591 h 47.531 c 1.983 0 3.591 1.608 3.591 3.591 v 5.005 C 69.212 32.756 67.605 34.364 65.622 34.364 z" style="stroke: none; stroke-width: 1; stroke-dasharray: none; stroke-linecap: butt; stroke-linejoin: miter; stroke-miterlimit: 10; fill: rgb(117,53,53); fill-rule: nonzero; opacity: 1;" transform=" matrix(1 0 0 1 0 0) " stroke-linecap="round" />
	<path d="M 59.559 23.229 H 24.153 c -2.118 0 -3.835 1.717 -3.835 3.835 v 46.252 c 0 2.118 1.717 3.835 3.835 3.835 h 35.406 c 2.118 0 3.835 -1.717 3.835 -3.835 V 27.064 C 63.394 24.946 61.677 23.229 59.559 23.229 z M 34.184 67.084 c 0 1.808 -1.48 3.288 -3.288 3.288 c -1.808 0 -3.288 -1.48 -3.288 -3.288 v -25.23 c 0 -1.808 1.48 -3.288 3.288 -3.288 c 1.808 0 3.288 1.48 3.288 3.288 V 67.084 z M 45.144 67.084 c 0 1.808 -1.48 3.288 -3.288 3.288 s -3.288 -1.48 -3.288 -3.288 v -25.23 c 0 -1.808 1.48 -3.288 3.288 -3.288 s 3.288 1.48 3.288 3.288 V 67.084 z M 56.104 67.084 c 0 1.808 -1.48 3.288 -3.288 3.288 s -3.288 -1.48 -3.288 -3.288 v -25.23 c 0 -1.808 1.48 -3.288 3.288 -3.288 s 3.288 1.48 3.288 3.288 V 67.084 z" style="stroke: none; stroke-width: 1; stroke-dasharray: none; stroke-linecap: butt; stroke-linejoin: miter; stroke-miterlimit: 10; fill: rgb(117,53,53); fill-rule: nonzero; opacity: 1;" transform=" matrix(1 0 0 1 0 0) " stroke-linecap="round" />
	<path d="M 68.909 31.076 H 21.378 c -1.983 0 -3.591 -1.608 -3.591 -3.591 V 22.48 c 0 -1.983 1.608 -3.591 3.591 -3.591 h 47.531 c 1.983 0 3.591 1.608 3.591 3.591 v 5.005 C 72.5 29.468 70.892 31.076 68.909 31.076 z" style="stroke: none; stroke-width: 1; stroke-dasharray: none; stroke-linecap: butt; stroke-linejoin: miter; stroke-miterlimit: 10; fill: rgb(255,255,255); fill-rule: nonzero; opacity: 1;" transform=" matrix(1 0 0 1 0 0) " stroke-linecap="round" />
	<path d="M 62.847 19.941 H 27.441 c -2.118 0 -3.835 1.717 -3.835 3.835 v 46.252 c 0 2.118 1.717 3.835 3.835 3.835 h 35.406 c 2.118 0 3.835 -1.717 3.835 -3.835 V 23.776 C 66.681 21.658 64.965 19.941 62.847 19.941 z M 37.472 63.796 c 0 1.808 -1.48 3.288 -3.288 3.288 s -3.288 -1.48 -3.288 -3.288 v -25.23 c 0 -1.808 1.48 -3.288 3.288 -3.288 s 3.288 1.48 3.288 3.288 V 63.796 z M 48.432 63.796 c 0 1.808 -1.48 3.288 -3.288 3.288 s -3.288 -1.48 -3.288 -3.288 v -25.23 c 0 -1.808 1.48 -3.288 3.288 -3.288 s 3.288 1.48 3.288 3.288 V 63.796 z M 59.392 63.796 c 0 1.808 -1.48 3.288 -3.288 3.288 s -3.288 -1.48 -3.288 -3.288 v -25.23 c 0 -1.808 1.48 -3.288 3.288 -3.288 s 3.288 1.48 3.288 3.288 V 63.796 z" style="stroke: none; stroke-width: 1; stroke-dasharray: none; stroke-linecap: butt; stroke-linejoin: miter; stroke-miterlimit: 10; fill: rgb(255,255,255); fill-rule: nonzero; opacity: 1;" transform=" matrix(1 0 0 1 0 0) " stroke-linecap="round" />
</g>
</svg>