<svg xmlns="http://www.w3.org/2000/svg" xmlns:xlink="http://www.w3.org/1999/xlink" viewBox="0 0 24 24" version="1.1" x="0px" y="0px">
    <g stroke="none" stroke-width="1"  fill-rule="evenodd">
        <g transform="translate(-476.000000, -284.000000)" >
            <g transform="translate(479.000000, 285.000000)">
                <path d="M13.0005775,22 L3.99942248,22 C2.34288718,22 1,20.656688 1,19.0057979 L1,2 L2,2 L2,19.0025781 C2,20.1057238 2.89354265,21 4.00276013,21 L12.9972399,21 C14.1033337,21 15,20.1090746 15,19.0025781 L15,2 L16,2 L16,19.0057979 C16,20.6594501 14.6556493,22 13.0005775,22 Z"/>
                <rect x="5" y="6" width="1" height="12"/>
                <rect x="8" y="6" width="1" height="12"/>
                <rect x="11" y="6" width="1" height="12"/>
                <rect x="0" y="2" width="17" height="1"/>
                <path d="M11,3 L11,0.998956561 C11,0.447248087 10.5562834,0 10.0001925,0 L6.99980749,0 C6.44762906,0 6,0.442660332 6,0.998956561 L6,3 L7,3 L7,1 L10,1 L10,3 L11,3 Z"/>
            </g>
        </g>
    </g>

</svg>