<svg xmlns="http://www.w3.org/2000/svg" xmlns:xlink="http://www.w3.org/1999/xlink" viewBox="0 0 24 30" version="1.1" x="0px" y="0px"><title>design_082-pencil-pen-draw-write</title><desc>Created with Sketch.</desc><g stroke="none" stroke-width="1" fill="none" fill-rule="evenodd"><g transform="translate(-92.000000, -428.000000)" fill="#000000"><g transform="translate(104.000000, 441.000000) rotate(-135.000000) translate(-104.000000, -441.000000) translate(100.000000, 428.000000)"><rect x="0" y="21.4142136" width="8" height="1"/><path d="M1.51247341,6.88795957 C2.18583679,7.18490436 3.01345806,7.36093748 4,7.36093748 C4.98654194,7.36093748 5.81416321,7.18490436 6.48752659,6.88795957 C6.90865277,6.70224822 7.19137216,6.50811924 7.34470653,6.36218421 C7.54473535,6.17180805 7.55256038,5.85532228 7.36218421,5.65529347 C7.17180805,5.45526465 6.85532228,5.44743962 6.65529347,5.63781579 C6.58248043,5.70711513 6.39501555,5.8358377 6.08403117,5.9729779 C5.53721028,6.21411904 4.84694212,6.36093748 4,6.36093748 C3.15305788,6.36093748 2.46278972,6.21411904 1.91596883,5.9729779 C1.60498445,5.8358377 1.41751957,5.70711513 1.34470653,5.63781579 C1.14467772,5.44743962 0.828191947,5.45526465 0.637815785,5.65529347 C0.447439623,5.85532228 0.455264648,6.17180805 0.655293466,6.36218421 C0.808627841,6.50811924 1.09134723,6.70224822 1.51247341,6.88795957 Z"/><path d="M2.56613323,3.7558843 C2.95317633,4.03285879 3.43321427,4.19854736 4,4.19854736 C4.56678573,4.19854736 5.04682367,4.03285879 5.43386677,3.7558843 C5.67270982,3.58496423 5.83137917,3.40816431 5.91970461,3.27174997 C6.06978797,3.03995351 6.00354642,2.73037876 5.77174997,2.58029539 C5.53995351,2.43021203 5.23037876,2.49645358 5.08029539,2.72825003 C5.05554713,2.76647253 4.97912434,2.85162787 4.85191211,2.94266307 C4.62886308,3.10228067 4.3499563,3.19854736 4,3.19854736 C3.6500437,3.19854736 3.37113692,3.10228067 3.14808789,2.94266307 C3.02087566,2.85162787 2.94445287,2.76647253 2.91970461,2.72825003 C2.76962124,2.49645358 2.46004649,2.43021203 2.22825003,2.58029539 C1.99645358,2.73037876 1.93021203,3.03995351 2.08029539,3.27174997 C2.16862083,3.40816431 2.32729018,3.58496423 2.56613323,3.7558843 Z"/><path d="M1,23.5067126 L1,6.16000366 L3.99745339,1.42394344 L6.99999984,6.16430656 L7,23.5064802 C7,24.335051 6.33357072,25 5.49408095,25 L2.50591905,25 C1.67168858,25 1,24.3336358 1,23.5067126 Z M5.49408095,26 C6.88535829,26 8,24.8878342 8,23.5064802 L8,6.01644492 C8,5.92166726 7.97306216,5.82884163 7.92232626,5.74878744 L4.42617192,0.232342513 C4.22993033,-0.0772993903 3.77822737,-0.0774818251 3.58173574,0.23200146 L0.0778900824,5.75071809 C0.0270159121,5.83084723 3.41060513e-13,5.92380162 3.41060513e-13,6.01871663 L3.41060513e-13,23.5067126 C3.41060513e-13,24.8877099 1.12117751,26 2.50591905,26 L5.49408095,26 Z"/></g></g></g><text x="0" y="39" fill="#000000" font-size="5px" font-weight="bold" font-family="'Helvetica Neue', Helvetica, Arial-Unicode, Arial, Sans-serif">Created by Pham Thi Dieu Linh</text><text x="0" y="44" fill="#000000" font-size="5px" font-weight="bold" font-family="'Helvetica Neue', Helvetica, Arial-Unicode, Arial, Sans-serif">from the Noun Project</text></svg>