<?xml version="1.0" encoding="UTF-8" standalone="no" ?>
<!DOCTYPE svg PUBLIC "-//W3C//DTD SVG 1.1//EN" "http://www.w3.org/Graphics/SVG/1.1/DTD/svg11.dtd">
<svg xmlns="http://www.w3.org/2000/svg" xmlns:xlink="http://www.w3.org/1999/xlink" version="1.1" width="350" height="350" viewBox="0 0 350 350" xml:space="preserve">
<desc>Created with Fabric.js 1.7.22</desc>
<defs>
</defs>
<g id="icon" style="stroke: none; stroke-width: 1; stroke-dasharray: none; stroke-linecap: butt; stroke-linejoin: miter; stroke-miterlimit: 10; fill: none; fill-rule: nonzero; opacity: 1;" transform="translate(-1.9444444444444287 -1.9444444444444287) scale(3.89 3.89)" >
	<polygon points="89,16.68 89,89 1,89 1,1 73.33,1 " style="stroke: none; stroke-width: 1; stroke-dasharray: none; stroke-linecap: butt; stroke-linejoin: miter; stroke-miterlimit: 10; fill: rgb(102,124,148); fill-rule: nonzero; opacity: 1;" transform="  matrix(1 0 0 1 0 0) "/>
	<path d="M 68.317 58.225 H 21.683 c -2.291 0 -4.148 1.857 -4.148 4.148 V 89 h 54.93 V 62.373 C 72.465 60.082 70.608 58.225 68.317 58.225 z" style="stroke: none; stroke-width: 1; stroke-dasharray: none; stroke-linecap: butt; stroke-linejoin: miter; stroke-miterlimit: 10; fill: rgb(199,205,222); fill-rule: nonzero; opacity: 1;" transform=" matrix(1 0 0 1 0 0) " stroke-linecap="round" />
	<path d="M 56.266 20.377 H 33.734 c -2.291 0 -4.148 -1.857 -4.148 -4.148 V 1 h 30.828 v 15.229 C 60.414 18.52 58.557 20.377 56.266 20.377 z" style="stroke: none; stroke-width: 1; stroke-dasharray: none; stroke-linecap: butt; stroke-linejoin: miter; stroke-miterlimit: 10; fill: rgb(227,182,55); fill-rule: nonzero; opacity: 1;" transform=" matrix(1 0 0 1 0 0) " stroke-linecap="round" />
	<path d="M 89 90 H 1 c -0.552 0 -1 -0.447 -1 -1 V 1 c 0 -0.552 0.448 -1 1 -1 h 72.324 c 0.266 0 0.52 0.105 0.707 0.293 l 15.676 15.675 C 89.895 16.156 90 16.41 90 16.675 V 89 C 90 89.553 89.553 90 89 90 z M 2 88 h 86 V 17.089 L 72.91 2 H 2 V 88 z" style="stroke: none; stroke-width: 1; stroke-dasharray: none; stroke-linecap: butt; stroke-linejoin: miter; stroke-miterlimit: 10; fill: rgb(0,0,0); fill-rule: nonzero; opacity: 1;" transform=" matrix(1 0 0 1 0 0) " stroke-linecap="round" />
	<path d="M 72.465 90 h -54.93 c -0.552 0 -1 -0.447 -1 -1 V 62.373 c 0 -2.838 2.309 -5.147 5.147 -5.147 h 46.635 c 2.838 0 5.147 2.31 5.147 5.147 V 89 C 73.465 89.553 73.018 90 72.465 90 z M 18.535 88 h 52.93 V 62.373 c 0 -1.735 -1.412 -3.147 -3.147 -3.147 H 21.683 c -1.735 0 -3.147 1.412 -3.147 3.147 V 88 z" style="stroke: none; stroke-width: 1; stroke-dasharray: none; stroke-linecap: butt; stroke-linejoin: miter; stroke-miterlimit: 10; fill: rgb(0,0,0); fill-rule: nonzero; opacity: 1;" transform=" matrix(1 0 0 1 0 0) " stroke-linecap="round" />
	<path d="M 56.267 21.376 H 33.734 c -2.838 0 -5.148 -2.31 -5.148 -5.148 V 1 c 0 -0.552 0.448 -1 1 -1 h 30.828 c 0.553 0 1 0.448 1 1 v 15.229 C 61.414 19.067 59.104 21.376 56.267 21.376 z M 30.586 2 v 14.229 c 0 1.736 1.412 3.148 3.148 3.148 h 22.533 c 1.735 0 3.147 -1.412 3.147 -3.148 V 2 H 30.586 z" style="stroke: none; stroke-width: 1; stroke-dasharray: none; stroke-linecap: butt; stroke-linejoin: miter; stroke-miterlimit: 10; fill: rgb(0,0,0); fill-rule: nonzero; opacity: 1;" transform=" matrix(1 0 0 1 0 0) " stroke-linecap="round" />
	<path d="M 62.083 69.422 H 27.917 c -0.552 0 -1 -0.447 -1 -1 s 0.448 -1 1 -1 h 34.166 c 0.553 0 1 0.447 1 1 S 62.636 69.422 62.083 69.422 z" style="stroke: none; stroke-width: 1; stroke-dasharray: none; stroke-linecap: butt; stroke-linejoin: miter; stroke-miterlimit: 10; fill: rgb(0,0,0); fill-rule: nonzero; opacity: 1;" transform=" matrix(1 0 0 1 0 0) " stroke-linecap="round" />
	<path d="M 62.083 79.422 H 27.917 c -0.552 0 -1 -0.447 -1 -1 s 0.448 -1 1 -1 h 34.166 c 0.553 0 1 0.447 1 1 S 62.636 79.422 62.083 79.422 z" style="stroke: none; stroke-width: 1; stroke-dasharray: none; stroke-linecap: butt; stroke-linejoin: miter; stroke-miterlimit: 10; fill: rgb(0,0,0); fill-rule: nonzero; opacity: 1;" transform=" matrix(1 0 0 1 0 0) " stroke-linecap="round" />
</g>
</svg>