<svg xmlns="http://www.w3.org/2000/svg" xmlns:xlink="http://www.w3.org/1999/xlink" viewBox="0 0 24 30" version="1.1" x="0px" y="0px"><title>content_059-save-floppy-disk-editor</title><desc>Created with Sketch.</desc><g stroke="none" stroke-width="1" fill="none" fill-rule="evenodd"><g transform="translate(-428.000000, -284.000000)" fill="#000000"><g transform="translate(428.000000, 285.000000)"><path d="M1,1 L20,1 L19.9999996,20 L4.71992898,20 L1,16.2922668 L1,1 Z M0,0.5 L0,16.5 C0,16.6326082 0.0526784202,16.7597852 0.146446609,16.8535534 L4.14644661,20.8535534 C4.2402148,20.9473216 4.36739176,21 4.5,21 L20.5,21 C20.7761424,21 21,20.7761424 21,20.5 L21,0.5 C21,0.223857625 20.7761424,0 20.5,0 L0.5,0 C0.223857625,0 0,0.223857625 0,0.5 Z" transform="translate(10.500000, 10.500000) scale(-1, -1) translate(-10.500000, -10.500000) "/><polygon points="4 11 17 11 17 21 16 21 16 12 5 12 5 21 4 21"/><rect x="7" y="14" width="7" height="1"/><rect x="7" y="17" width="7" height="1"/><polygon points="6 6 6 0 7 0 7 5 14 5 14 0 15 0 15 6"/><rect x="12" y="0" width="1" height="4"/></g></g></g><text x="0" y="39" fill="#000000" font-size="5px" font-weight="bold" font-family="'Helvetica Neue', Helvetica, Arial-Unicode, Arial, Sans-serif">Created by Pham Thi Dieu Linh</text><text x="0" y="44" fill="#000000" font-size="5px" font-weight="bold" font-family="'Helvetica Neue', Helvetica, Arial-Unicode, Arial, Sans-serif">from the Noun Project</text></svg>