<svg xmlns="http://www.w3.org/2000/svg" xmlns:xlink="http://www.w3.org/1999/xlink" version="1.1" x="0px" y="0px" viewBox="0 0 480 512" style="enable-background:new 0 0 512 512;" xml:space="preserve">
    <g>
        <path d="M118.6,225.1h101.3c5.5,0,10-4.5,10-10s-4.5-10-10-10H118.6c-5.5,0-10,4.5-10,10S113.1,225.1,118.6,225.1z"/>
        <path d="M377.4,349.1h-30.6v-31.1c0-5.5-4.5-10-10-10s-10,4.5-10,10v31.1h-31.1c-5.5,0-10,4.5-10,10s4.5,10,10,10h31.1v30.6   c0,5.5,4.5,10,10,10s10-4.5,10-10v-30.6h30.6c5.5,0,10-4.5,10-10S382.9,349.1,377.4,349.1z"/>
        <path d="M364.8,223.8v-90.9c0-2.6-1.2-5.1-2.9-6.9L260,19.1c-1.9-2-4.5-3.1-7.2-3.1H91.4c-29.8,0-53.6,24.3-53.6,54.1v305.2   c0,29.8,23.8,53.7,53.6,53.7h127.3c24,40,67.9,66.9,118,66.9c75.9,0,137.5-61.7,137.5-137.5C474.2,292.3,427.2,236.9,364.8,223.8z    M262.8,51.1l68.3,71.9h-44.3c-13.3,0-24-10.9-24-24.1V51.1z M91.4,409.1c-18.7,0-33.6-15-33.6-33.7V70.1   c0-18.8,14.9-34.1,33.6-34.1h151.4V99c0,24.3,19.7,44.1,44,44.1h58v78.1c-2.7-0.2-5.4-0.2-8.1-0.2c-34.6,0-66.3,12.9-90.5,34.1   H118.6c-5.5,0-10,4.5-10,10s4.5,10,10,10h108.9c-7.2,9.4-13.3,19.9-17.9,31h-91c-5.5,0-10,4.5-10,10s4.5,10,10,10h84.5   c-2.5,10.4-3.9,21.2-3.9,32.4c0,17.9,3.4,34.9,9.6,50.6H91.4z M336.7,475.9c-64.8,0-117.5-52.7-117.5-117.5s52.7-117.5,117.5-117.5   s117.5,52.7,117.5,117.5S401.5,475.9,336.7,475.9z"/>
    </g>
</svg>