<svg xmlns="http://www.w3.org/2000/svg" xmlns:xlink="http://www.w3.org/1999/xlink" version="1.1" x="0px" y="0px" viewBox="0 -80 512 640" style="enable-background:new 0 0 512 512;" xml:space="preserve">
    <g>
        <path d="M495.8,204.9c-1.9-2.4-4.7-3.9-7.6-3.9H461v-95.8c0-5.5-4.1-10.2-9.6-10.2H260.8l-41.7-40.3c-1.9-1.8-4.4-2.7-7-2.7H59   c-2.7,0-5.3,1-7.2,3c-1.9,2-2.9,4.4-2.8,7.1l5.3,138.9H24c-3,0-5.8,1.5-7.7,3.8c-1.9,2.3-2.7,5.4-2.2,8.3l42.6,238.8   c0.9,4.8,5,8.2,9.8,8.2H446c4.9,0,9-3.4,9.8-8.2L498,213.1C498.5,210.3,497.7,207.1,495.8,204.9z M208.2,71.9l41.7,40.3   c1.9,1.8,4.4,2.7,7,2.7H441v86h-18v-56c0-5.5-4.5-10-10-10H99c-5.5,0-10,4.5-10,10v56H74.3l-5-129H208.2z M403,154.9v46H109v-46   H403z M437.7,439.9H75l-39-219h440.3L437.7,439.9z"/>
        <path d="M204.8,333.1l41.3-44.2v109.2c0,5.5,4.5,10,10,10s10-4.5,10-10V288.9l41.2,44.3c2,2.1,4.6,3.2,7.3,3.2   c2.4,0,4.9-0.9,6.8-2.7c4-3.8,4.3-10.1,0.5-14.1l-58.5-63c-1.9-2-4.5-3.2-7.3-3.2s-5.4,1.2-7.3,3.2l-58.6,62.9   c-3.8,4-3.5,10.4,0.5,14.1C194.6,337.4,201,337.1,204.8,333.1z"/>
    </g>
</svg>