<?xml version="1.0" standalone="no"?>
<!DOCTYPE svg PUBLIC "-//W3C//DTD SVG 20010904//EN"
 "http://www.w3.org/TR/2001/REC-SVG-20010904/DTD/svg10.dtd">
<svg version="1.0" xmlns="http://www.w3.org/2000/svg"
 width="3398.000000pt" height="2105.000000pt" viewBox="0 0 3398.000000 2105.000000"
 preserveAspectRatio="xMidYMid meet">

<g transform="translate(0.000000,1052.5) scale(0.100000,-0.100000)"
 stroke="none">
<path d="M9732 9120 c0 -129 1 -241 2 -247 1 -9 -29 -15 -104 -20 -497 -33
-969 -168 -1270 -363 -95 -61 -211 -157 -256 -211 l-38 -48 2 -3655 c3 -3709
-10 -7522 -28 -8151 -23 -815 -131 -1454 -356 -2113 -187 -544 -479 -1092
-788 -1479 -214 -266 -615 -656 -961 -935 -724 -582 -1471 -951 -2155 -1067
-383 -65 -843 -59 -1215 15 -487 97 -910 312 -1237 628 -102 97 -219 236 -217
257 1 13 1381 1139 1394 1138 7 -1 95 -59 196 -129 101 -70 235 -157 297 -192
215 -124 488 -236 724 -298 195 -50 294 -65 473 -72 653 -23 1109 292 1471
1017 287 575 469 1316 571 2325 16 159 17 594 20 6447 l3 6276 -25 31 c-192
228 -949 453 -1977 588 l-208 27 0 233 0 233 2840 0 2840 0 2 -235z m3808 212
c1323 -157 2343 -536 3132 -1165 161 -128 461 -426 582 -577 554 -694 826
-1533 826 -2550 0 -378 -26 -630 -97 -935 -147 -638 -446 -1184 -908 -1658
-330 -339 -708 -615 -1185 -865 -477 -249 -1084 -464 -1681 -596 -189 -41
-531 -101 -581 -101 -15 0 -28 -4 -28 -10 0 -5 6 -10 14 -10 26 0 313 -31 471
-51 924 -116 1753 -377 2431 -764 460 -263 904 -639 1215 -1030 503 -633 812
-1419 913 -2330 43 -388 50 -853 21 -1315 -19 -289 -16 -892 5 -1160 88 -1122
316 -1896 710 -2416 134 -176 356 -366 529 -454 89 -44 238 -97 346 -122 l100
-22 2138 -3 2137 -3 0 -220 0 -220 -2717 3 -2718 3 -151 22 c-1593 231 -2586
1171 -2847 2697 -56 324 -77 626 -77 1120 0 664 -38 1382 -106 1985 -146 1312
-459 2289 -938 2924 -239 316 -525 564 -846 735 -275 145 -639 254 -995 296
-312 36 -367 38 -1672 42 l-1303 4 0 195 0 194 1184 0 c1280 0 1266 -1 1541
55 250 50 516 142 735 253 840 426 1344 1208 1479 2292 60 483 67 1341 15
1945 -127 1486 -616 2425 -1548 2970 -354 207 -830 368 -1341 454 -200 34
-316 39 -935 45 -327 4 -702 9 -832 12 l-238 6 0 175 0 174 1538 -4 c1377 -3
1552 -5 1682 -20z m12490 -66 c357 -39 642 -89 950 -166 426 -106 747 -225
1315 -488 519 -239 671 -297 921 -348 145 -29 391 -37 517 -15 293 50 536 203
711 450 45 62 119 199 148 271 15 37 16 -172 17 -2569 1 -1435 -1 -2607 -4
-2605 -2 3 -31 96 -65 207 -267 894 -703 1831 -1193 2567 -892 1337 -1988
2109 -3245 2285 -407 57 -998 51 -1467 -15 -1377 -194 -2442 -875 -3054 -1952
-162 -286 -301 -658 -361 -963 -55 -285 -76 -754 -46 -1014 71 -608 331 -1103
850 -1621 203 -203 332 -308 561 -460 445 -294 930 -519 1728 -801 406 -143
956 -313 1897 -584 998 -288 1568 -461 1990 -605 1518 -519 2465 -1030 3121
-1685 369 -369 599 -717 819 -1240 643 -1529 381 -3471 -688 -5095 -487 -741
-1094 -1359 -1804 -1839 -147 -98 -195 -125 -171 -93 5 6 44 55 85 107 489
618 896 1458 1043 2153 106 501 113 1028 19 1577 -166 972 -671 1849 -1448
2515 -614 527 -1225 844 -2356 1226 -459 155 -802 260 -1795 549 -1629 475
-2213 688 -2890 1057 -1587 865 -2335 2000 -2372 3603 -30 1325 370 2586 1131
3559 262 337 604 669 914 890 292 208 735 465 1071 620 589 273 1186 444 1801
516 256 30 347 33 750 30 330 -2 441 -7 600 -24z"/>
</g>
</svg>
