<svg id="Layer_1" data-name="Layer 1" xmlns="http://www.w3.org/2000/svg" viewBox="0 0 32 32"><defs><style>.cls-1{fill:none;stroke:#000;stroke-linecap:round;stroke-miterlimit:10;}</style></defs><title>Delete</title><path class="cls-1" d="M7.43,4.25H24.57a.93.93,0,0,1,.93.93V28.39a1.86,1.86,0,0,1-1.86,1.86H8.36A1.86,1.86,0,0,1,6.5,28.39V5.18A.93.93,0,0,1,7.43,4.25Z"/><path class="cls-1" d="M12.83,1.75h6.35A1.83,1.83,0,0,1,21,3.58v.67a0,0,0,0,1,0,0H11a0,0,0,0,1,0,0V3.58A1.83,1.83,0,0,1,12.83,1.75Z"/><line class="cls-1" x1="16" y1="8.25" x2="16" y2="26.25"/><line class="cls-1" x1="20.5" y1="8.25" x2="20.5" y2="26.25"/><line class="cls-1" x1="11.5" y1="8.25" x2="11.5" y2="26.25"/></svg>