<svg id="Layer_1" data-name="Layer 1" xmlns="http://www.w3.org/2000/svg" viewBox="0 0 32 32"><defs><style>.cls-1,.cls-2{fill:none;stroke:#000;stroke-miterlimit:10;}.cls-1{stroke-linecap:round;}</style></defs><title>Document</title><line class="cls-1" x1="10" y1="12" x2="22" y2="12"/><line class="cls-1" x1="10" y1="16" x2="19" y2="16"/><path class="cls-2" d="M27.5,7.5v17a2,2,0,0,1-2,2H9.5a2,2,0,0,1-2-2V4.5a2,2,0,0,1,2-2h13Z"/><path class="cls-2" d="M27.5,7.5h-3a2,2,0,0,1-2-2v-3"/><path class="cls-2" d="M7.5,5.5h-1a2,2,0,0,0-2,2v20a2,2,0,0,0,2,2h16a2,2,0,0,0,2-2v-1"/></svg>