<svg id="Layer_1" data-name="Layer 1" xmlns="http://www.w3.org/2000/svg" viewBox="0 0 32 32"><defs><style>.cls-1,.cls-2,.cls-3{fill:none;stroke:#000;stroke-linecap:round;stroke-miterlimit:10;}.cls-1{stroke-width:0.89px;}.cls-2{stroke-width:0.91px;}.cls-3{stroke-width:0.93px;}</style></defs><title>Internet</title><circle class="cls-1" cx="16" cy="16" r="13"/><path class="cls-2" d="M16,3q12,13,0,26"/><path class="cls-2" d="M6.14,24.46a19.88,19.88,0,0,1,5.07-2.64,14.4,14.4,0,0,1,9.58,0,19.88,19.88,0,0,1,5.07,2.64"/><path class="cls-2" d="M6.71,6.92A18.66,18.66,0,0,0,11.6,9.3,14.34,14.34,0,0,0,16,10a14.34,14.34,0,0,0,4.4-.7,18.66,18.66,0,0,0,4.89-2.38"/><path class="cls-2" d="M16,3Q4,16,16,29"/><line class="cls-3" x1="16" y1="3" x2="16" y2="29"/><line class="cls-3" x1="3" y1="16" x2="29" y2="16"/></svg>