<svg id="Layer_1" data-name="Layer 1" xmlns="http://www.w3.org/2000/svg" viewBox="0 0 32 32"><defs><style>.cls-1{fill:none;stroke:#000;stroke-miterlimit:10;}</style></defs><title>Permanent</title><circle class="cls-1" cx="16" cy="11.25" r="4"/><path class="cls-1" d="M20.5,15.75H20a2,2,0,0,0-1.33.52,4,4,0,0,1-5.21,0,2,2,0,0,0-1.33-.52H11.5a5,5,0,0,0-5,5v4a1,1,0,0,0,1,1h17a1,1,0,0,0,1-1v-4A5,5,0,0,0,20.5,15.75Z"/><path class="cls-1" d="M13.17,14.08a4.09,4.09,0,0,1-1.17.17,4,4,0,1,1,2.83-6.83"/><line class="cls-1" x1="17.66" y1="14.88" x2="17.65" y2="14.88"/><path class="cls-1" d="M10.4,15.87h0a4.24,4.24,0,0,1-1-.63,2,2,0,0,0-1.3-.49H7.5a5,5,0,0,0-5,5v4a1,1,0,0,0,1,1h3"/><path class="cls-1" d="M18.83,14.08a4.09,4.09,0,0,0,1.17.17,4,4,0,1,0-2.83-6.83"/><path class="cls-1" d="M21.7,15.9a4,4,0,0,0,1-.63A2,2,0,0,1,24,14.75h.49a5,5,0,0,1,5,5v4a1,1,0,0,1-1,1h-3"/><line class="cls-1" x1="14.35" y1="14.88" x2="14.34" y2="14.88"/><line class="cls-1" x1="17.2" y1="15.07" x2="17.19" y2="15.07"/></svg>