<svg id="Layer_1" data-name="Layer 1" xmlns="http://www.w3.org/2000/svg" viewBox="0 0 32 32"><defs><style>.cls-1,.cls-2{fill:none;stroke:#000;stroke-linecap:round;stroke-miterlimit:10;}.cls-1{stroke-width:1.01px;}.cls-2{stroke-width:0.85px;}</style></defs><title>Pin_tick</title><polygon points="11.36 20.68 5.6 29.5 10.49 20.17 11.36 20.68"/><path d="M18.9,12.3a4.36,4.36,0,0,1-1-2.79,4.49,4.49,0,0,1,3-4.19l-5-2.82S15.23,5.59,15.6,7L11,14.73a28,28,0,0,0-6,2.33l11.84,6.73a26.8,26.8,0,0,0-1-6.31Z"/><ellipse class="cls-1" cx="22.44" cy="9.51" rx="4.56" ry="4.49"/><polyline class="cls-2" points="24.43 7.81 21.71 10.49 21.12 11.07 19.43 9.41"/></svg>