<svg id="Layer_1" data-name="Layer 1" xmlns="http://www.w3.org/2000/svg" viewBox="0 0 32 32"><defs><style>.cls-1,.cls-2,.cls-3,.cls-4{fill:none;}.cls-1,.cls-3,.cls-4{stroke:#939393;}.cls-1,.cls-2,.cls-4{stroke-linecap:round;}.cls-1{stroke-linejoin:bevel;}.cls-2{stroke:#ff2c2c;}.cls-2,.cls-3,.cls-4{stroke-miterlimit:10;}</style></defs><title>Scale</title><polyline class="cls-1" points="3.5 13 6.5 9 9.5 13"/><path class="cls-2" d="M9.5,13.5a3,3,0,0,1-6,0Z"/><path class="cls-3" d="M20,28a4,4,0,0,0-8,0Z"/><polyline class="cls-1" points="22.5 13 25.5 9 28.5 13"/><path class="cls-2" d="M28.5,13.5a3,3,0,0,1-6,0Z"/><line class="cls-4" x1="16" y1="24.03" x2="16" y2="9.5"/><path class="cls-4" d="M18,7.5a1.91,1.91,0,0,1-.08.54,2,2,0,0,1-3.84,0A1.91,1.91,0,0,1,14,7.5a2,2,0,0,1,4,0Z"/><path class="cls-4" d="M25.5,9a46.64,46.64,0,0,0-7.58-1"/><path class="cls-4" d="M14.08,8A46.64,46.64,0,0,0,6.5,9"/><line class="cls-4" x1="9.5" y1="29.5" x2="22.5" y2="29.5"/><line class="cls-4" x1="16" y1="2.5" x2="16" y2="5.5"/></svg>