<svg id="Layer_1" data-name="Layer 1" xmlns="http://www.w3.org/2000/svg" viewBox="0 0 32 32"><defs><style>.cls-1,.cls-2{fill:none;stroke:#000;stroke-linecap:round;stroke-miterlimit:10;}.cls-1{stroke-width:0.91px;}</style></defs><title>Settings</title><circle class="cls-1" cx="16.04" cy="15.99" r="5"/><path class="cls-2" d="M27.64,20,26,19a.48.48,0,0,1-.22-.55A10.09,10.09,0,0,0,26,16a9.85,9.85,0,0,0-.26-2.26.5.5,0,0,1,.23-.55l1.69-1a1,1,0,0,0,.38-1.36L26.59,8.25a1,1,0,0,0-1.36-.37l-1.7,1a.52.52,0,0,1-.59-.08,9.69,9.69,0,0,0-4-2.36.49.49,0,0,1-.36-.47V4a1,1,0,0,0-1-1h-3a1,1,0,0,0-1,1v2a.49.49,0,0,1-.36.47,10,10,0,0,0-3.8,2.12.48.48,0,0,1-.59.06l-1.66-1a1,1,0,0,0-1.37.33L4.18,10.45a1,1,0,0,0,.33,1.38l1.65,1a.49.49,0,0,1,.22.55A10,10,0,0,0,6,16a9.54,9.54,0,0,0,.22,2.08.5.5,0,0,1-.24.55l-1.71.94a1,1,0,0,0-.39,1.36l1.44,2.63a1,1,0,0,0,1.35.39L8.42,23a.49.49,0,0,1,.59.09,9.73,9.73,0,0,0,4,2.43.47.47,0,0,1,.35.47l0,2a1,1,0,0,0,1,1l3,.05a1,1,0,0,0,1-1l0-2a.5.5,0,0,1,.37-.46,10.06,10.06,0,0,0,4.09-2.28.5.5,0,0,1,.59-.07l1.68,1a1,1,0,0,0,1.37-.35L28,21.33A1,1,0,0,0,27.64,20ZM16,21a5,5,0,1,1,5-5A5,5,0,0,1,16,21Z"/></svg>