<svg id="Layer_1" data-name="Layer 1" xmlns="http://www.w3.org/2000/svg" viewBox="0 0 32 32"><defs><style>.cls-1,.cls-2{fill:none;stroke:#000;stroke-linecap:round;stroke-miterlimit:10;}.cls-2{stroke-width:0.88px;}</style></defs><title>Upload</title><path class="cls-1" d="M29,15v9a2,2,0,0,1-2,2H5a2,2,0,0,1-2-2V8A2,2,0,0,1,5,6h7.51a1,1,0,0,1,.79.39l2.9,2.72A1,1,0,0,0,17,9.5H27a2,2,0,0,1,2,2Z"/><circle class="cls-1" cx="16" cy="18" r="6"/><line class="cls-2" x1="16" y1="14.5" x2="16" y2="21.5"/><polyline class="cls-2" points="13.38 16.25 16 14.5 18.63 16.25"/></svg>